<svg width="240" height="238" viewBox="0 0 240 238" fill="none" xmlns="http://www.w3.org/2000/svg">
<path d="M134.864 193.659H105.628V197.99C105.628 210.07 95.8357 219.862 83.7559 219.862V226.792H156.519V219.862C144.559 219.862 134.864 210.167 134.864 198.207V193.659Z" fill="#1E1E1E"/>
<path d="M18.5667 11.9715H11.1826V65.1402H20.9011C20.9011 43.4412 38.4916 25.8506 60.1906 25.8506H95.9439C101.467 25.8506 105.944 30.3278 105.944 35.8506V178.286H102.81C94.5255 178.286 87.8098 171.57 87.8098 163.286V58.863C87.8098 54.3847 91.4402 50.7544 95.9185 50.7544V43.0014H41.2918V50.7544H50.6916C56.2144 50.7544 60.6916 55.2315 60.6916 60.7544V164.838C60.6916 170.913 55.7667 175.838 49.6916 175.838H41.1353V183.127H134.279C134.279 183.127 199.008 170.569 199.008 113.435C199.008 60.9733 144.606 47.1213 144.606 47.1213V59.3884C144.606 59.3884 168.074 80.845 168.074 113.435C168.074 162.335 134.279 174.083 134.279 174.083V35.8506C134.279 30.3278 138.756 25.8506 144.279 25.8506H180.746C202.466 25.8506 220.073 43.4579 220.073 65.1777H228.563V11.355H222.26C222.26 15.5318 218.874 18.9179 214.697 18.9179H25.513C21.6766 18.9179 18.5667 15.8079 18.5667 11.9715Z" fill="#1E1E1E"/>
</svg>
